<mxfile host="app.diagrams.net" modified="2022-03-21T12:18:18.036Z" agent="5.0 (Windows NT 10.0; Win64; x64) AppleWebKit/537.36 (KHTML, like Gecko) Chrome/99.0.4844.82 Safari/537.36" etag="AgjkZoI11nDm6k1l6Ieo" version="17.1.3" type="github">
  <diagram id="C5RBs43oDa-KdzZeNtuy" name="Page-1">
    <mxGraphModel dx="868" dy="450" grid="1" gridSize="10" guides="1" tooltips="1" connect="1" arrows="1" fold="1" page="1" pageScale="1" pageWidth="827" pageHeight="1169" math="0" shadow="0">
      <root>
        <mxCell id="WIyWlLk6GJQsqaUBKTNV-0" />
        <mxCell id="WIyWlLk6GJQsqaUBKTNV-1" parent="WIyWlLk6GJQsqaUBKTNV-0" />
        <mxCell id="aiwJGREIc-efr3pQPpea-17" value="" style="edgeStyle=orthogonalEdgeStyle;rounded=0;orthogonalLoop=1;jettySize=auto;html=1;fontSize=12;" edge="1" parent="WIyWlLk6GJQsqaUBKTNV-1" source="aiwJGREIc-efr3pQPpea-18" target="aiwJGREIc-efr3pQPpea-28">
          <mxGeometry relative="1" as="geometry" />
        </mxCell>
        <mxCell id="aiwJGREIc-efr3pQPpea-18" value="AX &lt;font size=&quot;1&quot;&gt;&amp;lt;&lt;/font&gt;---&amp;nbsp; 0700h&lt;br&gt;DS&amp;nbsp;&lt;font style=&quot;font-size: 10px&quot;&gt;&amp;lt;&lt;/font&gt;&lt;font style=&quot;font-size: 12px&quot;&gt;---&lt;/font&gt;&amp;nbsp; AX&lt;br&gt;DI&amp;nbsp;&lt;font size=&quot;1&quot;&gt;&amp;lt;&lt;/font&gt;---&amp;nbsp; 30h&lt;br&gt;SI&amp;nbsp;&lt;font size=&quot;1&quot;&gt;&amp;lt;&lt;/font&gt;---&amp;nbsp; OFFSET NUMBER&lt;br&gt;CX&amp;nbsp;&lt;font size=&quot;1&quot;&gt;&amp;lt;&lt;/font&gt;---&amp;nbsp; 8" style="rounded=1;whiteSpace=wrap;html=1;fontSize=12;glass=0;strokeWidth=1;shadow=0;" vertex="1" parent="WIyWlLk6GJQsqaUBKTNV-1">
          <mxGeometry x="175" y="270" width="150" height="80" as="geometry" />
        </mxCell>
        <mxCell id="aiwJGREIc-efr3pQPpea-19" value="Yes" style="rounded=0;html=1;jettySize=auto;orthogonalLoop=1;fontSize=11;endArrow=block;endFill=0;endSize=8;strokeWidth=1;shadow=0;labelBackgroundColor=none;edgeStyle=orthogonalEdgeStyle;entryX=0.5;entryY=0;entryDx=0;entryDy=0;" edge="1" parent="WIyWlLk6GJQsqaUBKTNV-1" source="aiwJGREIc-efr3pQPpea-21" target="aiwJGREIc-efr3pQPpea-33">
          <mxGeometry y="20" relative="1" as="geometry">
            <mxPoint as="offset" />
            <mxPoint x="250" y="700" as="targetPoint" />
            <Array as="points" />
          </mxGeometry>
        </mxCell>
        <mxCell id="aiwJGREIc-efr3pQPpea-20" value="No" style="edgeStyle=orthogonalEdgeStyle;rounded=0;html=1;jettySize=auto;orthogonalLoop=1;fontSize=11;endArrow=block;endFill=0;endSize=8;strokeWidth=1;shadow=0;labelBackgroundColor=none;" edge="1" parent="WIyWlLk6GJQsqaUBKTNV-1" source="aiwJGREIc-efr3pQPpea-21">
          <mxGeometry y="10" relative="1" as="geometry">
            <mxPoint as="offset" />
            <mxPoint x="250" y="370" as="targetPoint" />
            <Array as="points">
              <mxPoint x="140" y="600" />
              <mxPoint x="140" y="370" />
            </Array>
          </mxGeometry>
        </mxCell>
        <mxCell id="aiwJGREIc-efr3pQPpea-21" value="ZF = 0" style="rhombus;whiteSpace=wrap;html=1;shadow=0;fontFamily=Helvetica;fontSize=12;align=center;strokeWidth=1;spacing=6;spacingTop=-4;" vertex="1" parent="WIyWlLk6GJQsqaUBKTNV-1">
          <mxGeometry x="200" y="560" width="100" height="80" as="geometry" />
        </mxCell>
        <mxCell id="aiwJGREIc-efr3pQPpea-22" style="edgeStyle=orthogonalEdgeStyle;rounded=0;orthogonalLoop=1;jettySize=auto;html=1;entryX=0.5;entryY=0;entryDx=0;entryDy=0;" edge="1" parent="WIyWlLk6GJQsqaUBKTNV-1" source="aiwJGREIc-efr3pQPpea-23" target="aiwJGREIc-efr3pQPpea-26">
          <mxGeometry relative="1" as="geometry" />
        </mxCell>
        <mxCell id="aiwJGREIc-efr3pQPpea-23" value="START" style="ellipse;whiteSpace=wrap;html=1;" vertex="1" parent="WIyWlLk6GJQsqaUBKTNV-1">
          <mxGeometry x="190" y="120" width="120" height="40" as="geometry" />
        </mxCell>
        <mxCell id="aiwJGREIc-efr3pQPpea-24" style="edgeStyle=orthogonalEdgeStyle;rounded=0;orthogonalLoop=1;jettySize=auto;html=1;exitX=0.5;exitY=1;exitDx=0;exitDy=0;fontSize=9;" edge="1" parent="WIyWlLk6GJQsqaUBKTNV-1" source="aiwJGREIc-efr3pQPpea-18" target="aiwJGREIc-efr3pQPpea-18">
          <mxGeometry relative="1" as="geometry" />
        </mxCell>
        <mxCell id="aiwJGREIc-efr3pQPpea-25" style="edgeStyle=orthogonalEdgeStyle;rounded=0;orthogonalLoop=1;jettySize=auto;html=1;entryX=0.5;entryY=0;entryDx=0;entryDy=0;fontSize=9;" edge="1" parent="WIyWlLk6GJQsqaUBKTNV-1" source="aiwJGREIc-efr3pQPpea-26" target="aiwJGREIc-efr3pQPpea-18">
          <mxGeometry relative="1" as="geometry" />
        </mxCell>
        <mxCell id="aiwJGREIc-efr3pQPpea-26" value="NUMBER&amp;nbsp;&lt;font size=&quot;1&quot;&gt;&amp;lt;&lt;/font&gt;---&amp;nbsp; &#39;2&#39;, &#39;1&#39;, &#39;9&#39;, &#39;8&#39;, &#39;9&#39;, &#39;1&#39;, &#39;3&#39;, &#39;8&#39;&lt;br&gt;" style="rounded=1;whiteSpace=wrap;html=1;fontSize=12;glass=0;strokeWidth=1;shadow=0;" vertex="1" parent="WIyWlLk6GJQsqaUBKTNV-1">
          <mxGeometry x="140" y="190" width="220" height="60" as="geometry" />
        </mxCell>
        <mxCell id="aiwJGREIc-efr3pQPpea-27" value="" style="edgeStyle=orthogonalEdgeStyle;rounded=0;orthogonalLoop=1;jettySize=auto;html=1;fontSize=12;" edge="1" parent="WIyWlLk6GJQsqaUBKTNV-1" source="aiwJGREIc-efr3pQPpea-28" target="aiwJGREIc-efr3pQPpea-32">
          <mxGeometry relative="1" as="geometry" />
        </mxCell>
        <mxCell id="aiwJGREIc-efr3pQPpea-28" value="AH&amp;nbsp;&lt;font size=&quot;1&quot;&gt;&amp;lt;&lt;/font&gt;---&amp;nbsp; [SI]&lt;br&gt;[DI]&amp;nbsp;&lt;font style=&quot;font-size: 10px&quot;&gt;&amp;lt;&lt;/font&gt;&lt;font style=&quot;font-size: 12px&quot;&gt;---&lt;/font&gt;&amp;nbsp; AH&lt;br&gt;" style="rounded=1;whiteSpace=wrap;html=1;fontSize=12;glass=0;strokeWidth=1;shadow=0;" vertex="1" parent="WIyWlLk6GJQsqaUBKTNV-1">
          <mxGeometry x="175" y="390" width="150" height="50" as="geometry" />
        </mxCell>
        <mxCell id="aiwJGREIc-efr3pQPpea-29" value="" style="edgeStyle=orthogonalEdgeStyle;rounded=0;orthogonalLoop=1;jettySize=auto;html=1;fontSize=12;entryX=0.5;entryY=0;entryDx=0;entryDy=0;" edge="1" parent="WIyWlLk6GJQsqaUBKTNV-1" source="aiwJGREIc-efr3pQPpea-30" target="aiwJGREIc-efr3pQPpea-21">
          <mxGeometry relative="1" as="geometry">
            <mxPoint x="250" y="560" as="targetPoint" />
          </mxGeometry>
        </mxCell>
        <mxCell id="aiwJGREIc-efr3pQPpea-30" value="CX&amp;nbsp;&lt;font size=&quot;1&quot;&gt;&amp;lt;&lt;/font&gt;---&amp;nbsp; CX - 1" style="rounded=1;whiteSpace=wrap;html=1;fontSize=12;glass=0;strokeWidth=1;shadow=0;" vertex="1" parent="WIyWlLk6GJQsqaUBKTNV-1">
          <mxGeometry x="175" y="510" width="150" height="30" as="geometry" />
        </mxCell>
        <mxCell id="aiwJGREIc-efr3pQPpea-31" value="" style="edgeStyle=orthogonalEdgeStyle;rounded=0;orthogonalLoop=1;jettySize=auto;html=1;fontSize=12;" edge="1" parent="WIyWlLk6GJQsqaUBKTNV-1" source="aiwJGREIc-efr3pQPpea-32" target="aiwJGREIc-efr3pQPpea-30">
          <mxGeometry relative="1" as="geometry" />
        </mxCell>
        <mxCell id="aiwJGREIc-efr3pQPpea-32" value="SI&amp;nbsp;&lt;font size=&quot;1&quot;&gt;&amp;lt;&lt;/font&gt;---&amp;nbsp; SI + 1" style="rounded=1;whiteSpace=wrap;html=1;fontSize=12;glass=0;strokeWidth=1;shadow=0;" vertex="1" parent="WIyWlLk6GJQsqaUBKTNV-1">
          <mxGeometry x="175" y="460" width="150" height="30" as="geometry" />
        </mxCell>
        <mxCell id="aiwJGREIc-efr3pQPpea-33" value="END" style="ellipse;whiteSpace=wrap;html=1;" vertex="1" parent="WIyWlLk6GJQsqaUBKTNV-1">
          <mxGeometry x="190" y="670" width="120" height="40" as="geometry" />
        </mxCell>
      </root>
    </mxGraphModel>
  </diagram>
</mxfile>
